<svg width="136" height="136" viewBox="0 0 136 136" fill="none" xmlns="http://www.w3.org/2000/svg">
<g filter="url(#filter0_d_159_257)">
<rect x="20" y="20" width="96" height="96" rx="48" fill="white"/>
<path d="M68.0203 52C59.2099 52 52.0376 59.1654 52.0344 67.975C52.0328 70.791 52.7704 73.5401 54.169 75.9625L52 84L60.3727 82.0219C62.7073 83.2955 65.3355 83.964 68.0109 83.9656H68.0172C76.826 83.9656 83.9952 76.7986 84 67.9906C84.0032 63.7202 82.3424 59.7052 79.3245 56.6844C76.3066 53.6652 72.2959 52.0016 68.0203 52ZM68.0172 55.2C71.4351 55.2016 74.6472 56.5341 77.0618 58.9469C79.4765 61.3629 80.8029 64.5731 80.7997 67.9875C80.7965 75.0339 75.0643 80.7656 68.0141 80.7656C65.8811 80.764 63.7682 80.2285 61.9072 79.2125L60.829 78.625L59.6382 78.9062L56.4879 79.65L57.2568 76.7938L57.6037 75.5125L56.9411 74.3625C55.8242 72.4297 55.2331 70.2198 55.2347 67.975C55.2379 60.9318 60.9717 55.2 68.0172 55.2ZM62.3635 60.6C62.0963 60.6 61.6642 60.7 61.2978 61.1C60.9313 61.4984 59.8976 62.4633 59.8976 64.4281C59.8976 66.3929 61.329 68.2922 61.5291 68.5594C61.7275 68.825 64.292 72.9844 68.3516 74.5844C71.7247 75.914 72.4098 75.6516 73.1427 75.5844C73.8756 75.5188 75.507 74.6203 75.8398 73.6875C76.1727 72.7547 76.1734 71.9523 76.0742 71.7875C75.975 71.6211 75.7086 71.5219 75.3085 71.3219C74.9101 71.1219 72.9466 70.1578 72.5801 70.025C72.2137 69.8922 71.9457 69.825 71.68 70.225C71.4144 70.625 70.651 71.5219 70.4174 71.7875C70.1838 72.0547 69.9517 72.0906 69.5517 71.8906C69.1517 71.689 67.8654 71.2663 66.3389 69.9062C65.1516 68.8486 64.3504 67.5437 64.1168 67.1438C63.8848 66.7453 64.0949 66.5265 64.2949 66.3281C64.4742 66.1489 64.6919 65.8617 64.8919 65.6281C65.0903 65.3945 65.1591 65.2281 65.2919 64.9625C65.4247 64.6969 65.3568 64.4625 65.2575 64.2625C65.1583 64.0625 64.3814 62.0904 64.0262 61.3C63.7269 60.636 63.4109 60.6206 63.1261 60.6094C62.8941 60.5998 62.6291 60.6 62.3635 60.6Z" fill="#114870"/>
</g>
<defs>
<filter id="filter0_d_159_257" x="0" y="0" width="136" height="136" filterUnits="userSpaceOnUse" color-interpolation-filters="sRGB">
<feFlood flood-opacity="0" result="BackgroundImageFix"/>
<feColorMatrix in="SourceAlpha" type="matrix" values="0 0 0 0 0 0 0 0 0 0 0 0 0 0 0 0 0 0 127 0" result="hardAlpha"/>
<feOffset/>
<feGaussianBlur stdDeviation="10"/>
<feComposite in2="hardAlpha" operator="out"/>
<feColorMatrix type="matrix" values="0 0 0 0 0.0313726 0 0 0 0 0.137255 0 0 0 0 0.211765 0 0 0 0.1 0"/>
<feBlend mode="normal" in2="BackgroundImageFix" result="effect1_dropShadow_159_257"/>
<feBlend mode="normal" in="SourceGraphic" in2="effect1_dropShadow_159_257" result="shape"/>
</filter>
</defs>
</svg>
