<svg width="58" height="58" viewBox="0 0 58 58" fill="none" xmlns="http://www.w3.org/2000/svg">
<rect width="58" height="58" rx="29" fill="#0C3553" fill-opacity="0.05"/>
<path fill-rule="evenodd" clip-rule="evenodd" d="M24.7335 20.2429L19.8095 27.9548C19.4506 28.5169 19.1805 29.1307 19.0081 29.7742C18.5333 31.5464 18.8258 33.4408 19.8186 34.9868L20.0782 35.3912C20.7706 36.4694 21.8155 37.2788 23.0404 37.674C24.1415 38.0293 25.3255 38.0293 26.4267 37.674C27.6515 37.2788 28.6964 36.4694 29.3888 35.3912L29.6485 34.9868C30.6412 33.4408 30.9337 31.5464 30.4589 29.7742C30.2865 29.1307 30.0164 28.5169 29.6575 27.9548L24.7335 20.2429ZM22.7725 18.0865C23.6974 16.6378 25.7696 16.6378 26.6945 18.0865L31.9823 26.3681C32.501 27.1804 32.8929 28.07 33.1435 29.0054C33.8352 31.5869 33.406 34.3423 31.9693 36.5796L31.7097 36.984C30.6582 38.6215 29.0829 39.834 27.2565 40.4232C25.615 40.9528 23.852 40.9528 22.2105 40.4232C20.3841 39.834 18.8089 38.6215 17.7574 36.984L17.4977 36.5796C16.0611 34.3423 15.6319 31.5869 16.3235 29.0054C16.5741 28.07 16.966 27.1804 17.4847 26.3681L22.7725 18.0865ZM34.4224 22.1919C35.0647 21.7542 35.9285 21.9376 36.3519 22.6017L40.844 29.6469C41.2477 30.2802 41.553 30.9738 41.7481 31.7033C42.2868 33.7165 41.9521 35.8646 40.8338 37.6086L40.7505 37.7386C39.8576 39.131 38.5199 40.1613 36.9698 40.6621C35.8577 41.0214 34.6756 41.0954 33.529 40.8781L33.417 40.8569C32.6604 40.7135 32.1594 39.9631 32.2982 39.1808C32.4369 38.3986 33.1627 37.8807 33.9194 38.0241L34.0313 38.0453C34.7341 38.1785 35.4586 38.133 36.1389 37.9132C37.0873 37.6068 37.8947 36.98 38.4286 36.1473L38.512 36.0173C39.1873 34.964 39.3856 33.6759 39.0632 32.4711C38.9461 32.0332 38.7625 31.6152 38.5181 31.2319L34.0261 24.1867C33.6027 23.5227 33.7801 22.6296 34.4224 22.1919Z" fill="#196DA9"/>
</svg>
