<svg width="56" height="56" viewBox="0 0 56 56" fill="none" xmlns="http://www.w3.org/2000/svg">
<rect width="56" height="56" rx="28" fill="#0C3553" fill-opacity="0.05"/>
<path d="M30.1213 25.8787C31.2929 27.0503 31.2929 28.9497 30.1213 30.1213C28.9497 31.2929 27.0503 31.2929 25.8787 30.1213C24.7071 28.9497 24.7071 27.0503 25.8787 25.8787C27.0503 24.7071 28.9497 24.7071 30.1213 25.8787" stroke="#196DA9" stroke-width="2" stroke-linecap="round" stroke-linejoin="round"/>
<path fill-rule="evenodd" clip-rule="evenodd" d="M31.5604 18.1503L32.2892 18.3928C32.9567 18.6153 33.408 19.2403 33.408 19.9441V20.9904C33.408 21.8804 34.1181 22.6067 35.0082 22.6254L36.0558 22.6479C36.6621 22.6604 37.2122 23.0092 37.4834 23.5517L37.8272 24.2392C38.1423 24.8693 38.0185 25.6293 37.521 26.1268L36.7809 26.8668C36.1521 27.4956 36.1408 28.5119 36.7559 29.1544L37.4809 29.9119C37.901 30.3507 38.0435 30.9845 37.851 31.5608L37.6085 32.2895C37.3859 32.9571 36.7609 33.4083 36.0571 33.4083H35.0107C34.1206 33.4083 33.3943 34.1184 33.3755 35.0084L33.353 36.0559C33.3405 36.6622 32.9917 37.2122 32.4492 37.4835L31.7616 37.8272C31.1316 38.1423 30.3715 38.0185 29.8739 37.521L29.1339 36.781C28.5051 36.1522 27.4887 36.1409 26.8461 36.756L26.0886 37.481C25.6498 37.901 25.016 38.0435 24.4396 37.851L23.7108 37.6085C23.0433 37.386 22.592 36.761 22.592 36.0572V35.0109C22.592 34.1209 21.8819 33.3946 20.9918 33.3758L19.9442 33.3533C19.3379 33.3408 18.7878 32.9921 18.5166 32.4495L18.1728 31.762C17.8577 31.132 17.9815 30.372 18.479 29.8744L19.2191 29.1344C19.8479 28.5056 19.8592 27.4894 19.2441 26.8468L18.5191 26.0893C18.0978 25.6493 17.9552 25.0143 18.1478 24.4392L18.3903 23.7105C18.6128 23.0429 19.2379 22.5917 19.9417 22.5917H20.988C21.8781 22.5917 22.6045 21.8816 22.6232 20.9916L22.6457 19.9441C22.6607 19.3378 23.0083 18.7878 23.5508 18.5165L24.2384 18.1728C24.8684 17.8577 25.6285 17.9815 26.1261 18.479L26.8661 19.219C27.4949 19.8478 28.5113 19.8591 29.1539 19.244L29.9114 18.519C30.3502 18.1003 30.9853 17.9577 31.5604 18.1503V18.1503Z" stroke="#196DA9" stroke-width="2" stroke-linecap="round" stroke-linejoin="round"/>
</svg>
