<svg width="42" height="42" viewBox="0 0 42 42" fill="none" xmlns="http://www.w3.org/2000/svg">
<path d="M15.998 14.36H26.0022" stroke="#196DA9" stroke-width="2" stroke-linecap="round" stroke-linejoin="round"/>
<path d="M15.998 20.9999H21.0001" stroke="#196DA9" stroke-width="2" stroke-linecap="round" stroke-linejoin="round"/>
<path d="M8.49463 7.66113H27.6693C29.511 7.66113 31.004 9.15414 31.004 10.9959V27.6695" stroke="#196DA9" stroke-width="2" stroke-linecap="round" stroke-linejoin="round"/>
<path d="M13.4968 34.3389H32.6714C34.5131 34.3389 36.0062 32.8459 36.0062 31.0042V29.3368C36.0062 28.416 35.2596 27.6695 34.3388 27.6695H17.6652C16.7443 27.6695 15.9978 28.416 15.9978 29.3368V31.8379C15.9978 33.2192 14.8781 34.3389 13.4968 34.3389V34.3389C12.1155 34.3389 10.9957 33.2192 10.9957 31.8379V10.1622C10.9957 8.78089 9.87598 7.66113 8.49469 7.66113V7.66113C7.11341 7.66113 5.99365 8.78089 5.99365 10.1622V14.3306C5.99365 15.2514 6.74016 15.9979 7.66101 15.9979H10.9957" stroke="#196DA9" stroke-width="2" stroke-linecap="round" stroke-linejoin="round"/>
</svg>
