<svg width="56" height="56" viewBox="0 0 56 56" fill="none" xmlns="http://www.w3.org/2000/svg">
<rect width="56" height="56" rx="28" fill="#0C3553" fill-opacity="0.05"/>
<path fill-rule="evenodd" clip-rule="evenodd" d="M29.5002 29.7L22.7002 36.5C21.8002 37.4 20.4002 37.4 19.5002 36.5C18.6002 35.6 18.6002 34.2 19.5002 33.3L26.3002 26.5C25.5002 24.5 26.0002 22.2 27.6002 20.6C29.3002 18.9 31.8002 18.6 33.8002 19.4C33.9002 19.4 33.9002 19.5 33.8002 19.6L30.2002 23.2L32.8002 25.8L36.5002 22.2C36.5002 22.2 36.6002 22.2 36.7002 22.2C37.7002 24.2 37.2002 26.7 35.5002 28.4C33.8002 30 31.5002 30.4 29.5002 29.7Z" stroke="#196DA9" stroke-width="2" stroke-linecap="round" stroke-linejoin="round"/>
</svg>
