<svg width="42" height="42" viewBox="0 0 42 42" fill="none" xmlns="http://www.w3.org/2000/svg">
<path d="M5.99385 20.9999C5.99385 29.2876 12.7124 36.0062 21.0001 36.0062C29.2878 36.0062 36.0063 29.2876 36.0063 20.9999C36.0063 12.7122 29.2878 5.99365 21.0001 5.99365" stroke="#196DA9" stroke-width="2" stroke-linecap="round" stroke-linejoin="round"/>
<path d="M7.661 7.66113L12.6631 12.6632" stroke="#196DA9" stroke-width="2" stroke-linecap="round" stroke-linejoin="round"/>
<path d="M14.3307 5.99365L15.998 7.66101" stroke="#196DA9" stroke-width="2" stroke-linecap="round" stroke-linejoin="round"/>
<path d="M5.99377 14.3306L7.66113 15.9979" stroke="#196DA9" stroke-width="2" stroke-linecap="round" stroke-linejoin="round"/>
<path d="M21.5286 14.2188C18.0754 14.2188 15.276 17.0181 15.276 20.4714C15.276 23.9246 18.0754 26.724 21.5286 26.724C24.9819 26.724 27.7812 23.9246 27.7812 20.4714C27.7812 17.0181 24.9819 14.2188 21.5286 14.2188" stroke="#196DA9" stroke-width="2" stroke-linecap="round" stroke-linejoin="round"/>
<path fill-rule="evenodd" clip-rule="evenodd" d="M14.3307 27.6693L17.1074 24.8926L14.3307 27.6693Z" stroke="#196DA9" stroke-width="2" stroke-linecap="round" stroke-linejoin="round"/>
</svg>
