<svg width="56" height="56" viewBox="0 0 56 56" fill="none" xmlns="http://www.w3.org/2000/svg">
<rect width="56" height="56" rx="28" fill="#0C3553" fill-opacity="0.05"/>
<path d="M35 21H36C37.105 21 38 21.895 38 23V35C38 36.105 37.105 37 36 37H20C18.895 37 18 36.105 18 35V23C18 21.895 18.895 21 20 21H21" stroke="#196DA9" stroke-width="2" stroke-linecap="round" stroke-linejoin="round"/>
<path fill-rule="evenodd" clip-rule="evenodd" d="M28 22C28 20.343 26.657 19 25 19H22C21.448 19 21 19.448 21 20V33C21 33.552 21.448 34 22 34H25C26.657 34 28 35.343 28 37C28 35.343 29.343 34 31 34H34C34.552 34 35 33.552 35 33V20C35 19.448 34.552 19 34 19H31C29.343 19 28 20.343 28 22Z" stroke="#196DA9" stroke-width="2" stroke-linecap="round" stroke-linejoin="round"/>
<path d="M28 22V37" stroke="#196DA9" stroke-width="2" stroke-linecap="round" stroke-linejoin="round"/>
</svg>
