<?xml version="1.0" encoding="utf-8"?>
<!-- Generator: Adobe Illustrator 24.1.2, SVG Export Plug-In . SVG Version: 6.00 Build 0)  -->
<svg version="1.1" id="Layer_1" xmlns="http://www.w3.org/2000/svg" xmlns:xlink="http://www.w3.org/1999/xlink" x="0px" y="0px"
	 viewBox="0 0 409.3 306.5" style="enable-background:new 0 0 409.3 306.5;" xml:space="preserve">
<style type="text/css">
	.st0{fill-rule:evenodd;clip-rule:evenodd;fill:#9A8555;}
	.st1{fill-rule:evenodd;clip-rule:evenodd;fill:#002C3A;}
</style>
<g>
	<path class="st0" d="M286.7,82.1V82c0-45.3-36.8-82-82-82h0c-45.3,0-82,36.7-82,82v0c0,45.3,36.7,82,82,82
		C249.9,164.1,286.6,127.4,286.7,82.1"/>
	<path class="st1" d="M204.6,8c40.9,0,74,33.1,74,74c0,40.9-33.1,74-74,74c-40.9,0-74-33.1-74-74C130.6,41.2,163.8,8,204.6,8"/>
	<path class="st0" d="M154.6,77.2l0.1-13.6c-0.1-4.4,2.9-7,8.1-8.4l32.8-10.7c5.2-1.2,8-4.1,9.3-8.1l0,13.9c-0.4,5.1-4,7.3-9.1,8.3
		l-32.5,10.4C158.8,70.1,156,73,154.6,77.2"/>
	<path class="st0" d="M154.4,106l0.1-13.6c-0.1-4.4,2.9-7,8.2-8.4l32.8-10.7c5.2-1.2,8-4.1,9.3-8.1l0,13.9c-0.4,5.1-4,7.3-9.1,8.3
		l-32.5,10.4C158.6,98.9,155.8,101.8,154.4,106"/>
	<path class="st0" d="M154.4,134.9l0.1-13.6c-0.1-4.4,2.9-7,8.2-8.4l32.8-10.7c5.2-1.2,8-4.1,9.3-8.1l0,13.9c-0.4,5.1-4,7.3-9.1,8.3
		l-32.5,10.4C158.6,127.7,155.8,130.6,154.4,134.9"/>
	<path class="st0" d="M204.3,127.7l0.1-13.6c-0.1-4.4,2.9-7,8.2-8.4L245.4,95c5.2-1.2,8-4.1,9.3-8.1l0,13.9c-0.4,5.1-4,7.3-9.1,8.3
		l-32.5,10.4C208.5,120.5,205.8,123.4,204.3,127.7"/>
	<path class="st0" d="M204.3,70l0.1-13.6c-0.1-4.4,2.9-7,8.2-8.4l32.8-10.7c5.2-1.2,8-4.1,9.3-8.1l0,13.9c-0.4,5.1-4,7.3-9.1,8.3
		l-32.5,10.4C208.5,62.8,205.8,65.8,204.3,70"/>
	<path class="st0" d="M204.5,98.8l0.1-13.6c-0.1-4.4,2.9-7,8.2-8.4l32.8-10.7c5.2-1.2,8-4.1,9.3-8.1l0,13.9c-0.4,5.1-4,7.3-9.1,8.3
		l-32.5,10.4C208.7,91.7,205.9,94.6,204.5,98.8"/>
	<path class="st1" d="M367.6,252v-43c2.2-0.4,4.2-0.6,6-0.6c10.4,0,17,8.3,17,22.2c0,13.6-7,22.1-17,22.1
		C371.6,252.8,369.7,252.5,367.6,252 M255.8,234.1l6.7-20l6.6,20H255.8z M203.5,229.5v-22.1c0.5-0.1,1-0.1,1.4-0.1
		c5.7,0,9.2,3.7,9.2,9.6C214.1,223.3,210.5,227.7,203.5,229.5 M299.2,262.4h1.3h40.7l3.4-14.1c-4.8,3.6-9.7,4.8-16.2,4.8
		c-2.4,0-4.8-0.4-7.2-0.9v-19.5h5.4c3.1,0,5.4,1.2,7,3.2v-12.4h-12.4v-16.1h6.6c3.6,0,6,0.7,9.3,3.7v-13.5h-37.9
		c3.7,3.3,3.7,6.7,3.7,11.4v41.9c0,4.3-0.1,7.6-3.1,10.8c-2.8-2.9-5-6.7-6.5-11L275,197.6h-22.9c2,2.3,3.2,4,3.2,6.2
		c0,2.1-0.9,3.7-1.4,5.4l-15.2,43.4c-0.6,1.6-1.3,3.1-2.1,4.5c-2-2.4-3.5-4.6-4.7-6.5l-11.7-20c8-3.8,11.8-8.8,11.8-15.8
		c0-11.6-8.4-17.3-25.1-17.3h-25.2c3.7,3.3,3.7,6.7,3.7,11.4v41.9c0,4.6-0.1,8-3.7,11.5h25.6c-3.6-3.4-3.7-6.9-3.7-11.5v-16.3
		l8.4,16.4c4.2,8.1,8,11.7,15.2,11.7c0.9,0,1.7,0,2.6-0.1l3.2-0.3l-0.1,0.1h19c-2-2-3-4.1-3-6.4c0-1.1,0.4-2.4,0.9-3.9l3.1-8.9h19.5
		l3.2,9.3c0.3,0.8,0.5,1.9,0.5,3.3c0,2.6-1.2,4.2-3.4,6.7H299.2z M149.7,222.2v-14.5c1.3-0.2,2.3-0.3,2.8-0.3c3.9,0,6.5,3.2,6.5,7.3
		c0,4.9-2.6,7.7-6.7,7.7C151.7,222.4,150.9,222.4,149.7,222.2 M149.7,252.6v-21c1.6-0.2,2.9-0.4,3.7-0.4c5.8,0,9.7,4.3,9.7,11.2
		c0,6.1-3.9,10.6-9.6,10.6C152.8,253,151.5,252.9,149.7,252.6 M127.7,262.4h27.9c8.3,0,14-1,19-6.3c3.3-3.6,5.2-8.3,5.2-13.4
		c0-8.6-4.6-14.3-13.3-16.9c6.4-2.8,9.7-7.3,9.7-12.9c0-9.5-8.2-15.3-24.4-15.3h-24.1c3.6,3.3,3.7,6.7,3.7,11.4v41.9
		C131.4,255.5,131.3,258.9,127.7,262.4 M46.2,262.4h18.3c-2.5-2.7-3.5-4.9-3.5-8c0-1.8,0.2-4.3,0.6-7.4l2.9-25.9L75,248.9
		c2.7,7.1,5.9,11.8,14.2,14.5l12.8-41.9l3.1,29.7c0.1,0.9,0.1,1.6,0.1,2.4c0,3.3-0.8,6.1-2.6,8.8h24c-3.6-4.2-3.9-8.5-4.5-13.5
		l-4.5-39.9c-0.1-1.1-0.2-2.2-0.2-3.1c0-4,1.5-6.2,3.6-8.3h-20.8l-12.1,39.5l-14.5-39.5H53.2c2.2,3,3.2,5.7,3.2,9.2
		c0,1.1-0.2,3-0.5,5.4l-4.8,37.6C50.5,254.6,49.9,258.6,46.2,262.4 M0,262.4h42l3.4-14.1c-4.8,3.6-9.7,4.8-16.2,4.8
		c-2.4,0-4.8-0.4-7.2-0.9v-19.5h5.4c3.1,0,5.4,1.2,7,3.2v-12.4H22.1v-16.1h6.6c3.6,0,6,0.7,9.3,3.7v-13.5H0
		c3.7,3.3,3.7,6.7,3.7,11.4v41.9C3.7,255.5,3.6,258.9,0,262.4 M346.1,262.4h28.4c10.4,0,17.9-1.6,23.8-6.7
		c7.3-6.3,11.1-15.1,11.1-25.6c0-19.7-13-32.5-37.3-32.5h-25.9c3.6,3.3,3.7,6.7,3.7,11.4v41.9C349.8,255.5,349.7,258.9,346.1,262.4"
		/>
	<polygon class="st1" points="49.6,305.9 49.6,284.6 64.3,284.6 64.3,287.1 52.3,287.1 52.3,293.7 62.7,293.7 62.7,296.2 
		52.3,296.2 52.3,303.5 64.7,303.5 64.7,305.9 	"/>
	<polygon class="st1" points="86.7,305.9 87.1,288 80.4,305.9 78.2,305.9 71.5,288.3 71.8,305.9 69.1,305.9 69.1,284.6 72.7,284.6 
		79.3,302.1 85.9,284.6 89.6,284.6 89.6,305.9 	"/>
	<path class="st1" d="M108.7,289.1c-0.4-1-1.2-1.7-2.2-1.9c-0.6-0.2-1.1-0.2-1.7-0.2h-6.6v7.3h6c0.8,0,1.5,0,2.3-0.1
		c1.7-0.5,2.5-2,2.5-3.7C108.9,290.3,108.9,289.7,108.7,289.1 M107.5,296.6c-0.8,0.2-1.6,0.3-3.2,0.3h-6.2v9.1h-2.8v-21.4h9.2
		c1.7,0,3.1,0,4.5,0.9c2.4,1.5,2.5,4.3,2.5,5.1C111.7,293.3,110.3,295.9,107.5,296.6"/>
	<path class="st1" d="M127.9,287.5c-1.1-0.7-2.5-0.6-3.7-0.6h-5.5v7.5h5.7c1.6,0,3.5,0,4.6-1.5c0.5-0.7,0.7-1.4,0.7-2.2
		C129.6,290.2,129.6,288.5,127.9,287.5 M130,305.9l-5.8-9.1h-5.5v9.1h-2.8v-21.4h8c0.7,0,1.4,0,2,0c3,0.1,4.4,1.1,5.3,2.1
		c0.6,0.7,1.3,2,1.3,4.1c0,0.9-0.1,3.8-2.8,5.2c-0.5,0.3-1,0.5-2.2,0.7l6,9.3H130z"/>
	<polygon class="st1" points="137.6,305.9 137.6,284.6 152.3,284.6 152.3,287.1 140.4,287.1 140.4,293.7 150.8,293.7 150.8,296.2 
		140.4,296.2 140.4,303.5 152.7,303.5 152.7,305.9 	"/>
	<polygon class="st1" points="157.4,305.9 157.4,284.6 172.1,284.6 172.1,287.1 160.2,287.1 160.2,293.7 170.6,293.7 170.6,296.2 
		160.2,296.2 160.2,303.5 172.5,303.5 172.5,305.9 	"/>
	<polygon class="st1" points="191.3,305.9 179.6,288.6 179.9,305.9 177.2,305.9 177.2,284.6 179.9,284.6 191.5,301.7 191.3,284.6 
		193.9,284.6 193.9,305.9 	"/>
	<path class="st1" d="M213.1,289.3c-0.3-0.4-0.7-0.7-1.1-1c-0.8-0.6-1.5-0.8-1.8-0.9c-1-0.3-1.8-0.3-3.8-0.3h-3.4v16.4h5.1
		c0.8,0,3.2-0.1,4.8-2c1-1.1,1.8-3,1.8-6.2C214.8,293.3,214.4,290.9,213.1,289.3 M217.3,298.9c-0.4,1.5-1.6,5.4-6.1,6.6
		c-0.9,0.3-1.7,0.4-3.6,0.4c-0.7,0-1.4,0-2.1,0h-5.4v-21.4h8.5c1.1,0,3.5,0.1,5.8,2c1.6,1.4,3.3,3.9,3.3,8.7
		C217.7,296.5,217.6,297.8,217.3,298.9"/>
	<rect x="222.8" y="284.6" class="st1" width="2.9" height="21.4"/>
	<polygon class="st1" points="248.9,305.9 249.3,288 242.6,305.9 240.3,305.9 233.7,288.3 234,305.9 231.2,305.9 231.2,284.6 
		234.9,284.6 241.5,302.1 248.1,284.6 251.8,284.6 251.8,305.9 	"/>
	<polygon class="st1" points="257.7,305.9 257.7,284.6 272.4,284.6 272.4,287.1 260.4,287.1 260.4,293.7 270.8,293.7 270.8,296.2 
		260.4,296.2 260.4,303.5 272.7,303.5 272.7,305.9 	"/>
	<polygon class="st1" points="291.6,305.9 279.9,288.6 280.1,305.9 277.4,305.9 277.4,284.6 280.1,284.6 291.7,301.7 291.6,284.6 
		294.1,284.6 294.1,305.9 	"/>
	<polygon class="st1" points="307.6,287 307.6,305.9 304.8,305.9 304.8,287 298.4,287 298.4,284.6 314,284.6 314,287 	"/>
	<path class="st1" d="M332.6,289.1c-2-2.7-4.8-2.8-6-2.8c-3.5,0-5.2,1.8-6.1,2.9c-1.2,1.7-1.6,4-1.6,6c0,2.8,0.8,4.7,1.4,5.7
		c0.5,0.8,1.1,1.4,1.4,1.6c0.9,0.8,1.7,1.1,2.1,1.2c0.6,0.2,1.5,0.5,2.9,0.5c0.5,0,1.9,0,3.2-0.6c2.1-0.9,4.4-3.4,4.4-8.5
		C334.3,294.3,334.3,291.4,332.6,289.1 M335.1,302.5c-1.2,1.6-3.8,4-8.6,4c-1.3,0-4.6-0.1-7.4-2.7c-1.4-1.3-3.3-3.9-3.3-8.5
		c0-1.2,0.1-4.9,2.7-7.8c2-2.3,5.1-3.4,8.1-3.4c1.5,0,2.9,0.2,4.2,0.8c4.5,1.7,6.5,5.7,6.5,10.3
		C337.4,296.2,337.3,299.6,335.1,302.5"/>
	<path class="st1" d="M357.3,304.2c-1.2,1.1-3.1,2.3-6.8,2.3c-0.7,0-3.6,0-5.8-1.5c-0.7-0.4-1.3-1-1.7-1.6c-1.3-1.7-1.4-3.6-1.5-4.3
		l3.1-0.4c0,0.6,0.1,2.4,1.5,3.8c0.8,0.8,2.2,1.7,4.7,1.7c0.3,0,1.1,0,2-0.2c0.9-0.2,3.4-1.1,3.4-4c0-1.4-0.6-2-1.1-2.4
		c-0.8-0.7-2-0.9-3-1.1l-1.8-0.4c-1.5-0.3-3.3-0.7-4.7-1.5c-2.6-1.4-2.9-3.3-2.9-4.6c0-1.7,0.8-3.1,2-4.2c2.2-1.8,4.8-1.8,5.7-1.8
		c2.1,0,4.1,0.3,5.7,1.6c1,0.8,1.5,1.5,1.7,1.9c0.6,1,0.8,2,1,3.1l-2.9,0.2c0-0.4-0.1-0.8-0.2-1.3c-0.4-1.5-1.8-3.3-5.3-3.3
		c-1.4,0-3.2,0.3-4.1,1.4c-0.5,0.5-0.7,1.2-0.7,1.9c0,0.3,0.1,1,0.5,1.6c0.8,1.1,2.5,1.5,3.7,1.8l2.4,0.6c0.5,0.1,1.1,0.3,1.7,0.4
		c0.7,0.2,3.3,0.7,4.6,2.9c0.3,0.5,0.8,1.5,0.8,3C359.1,300.6,359,302.6,357.3,304.2"/>
</g>
</svg>
