<svg xmlns="http://www.w3.org/2000/svg" viewBox="0 0 385.98 168.39"><defs><style>.cls-1{fill:#fff;}</style></defs><g id="Layer_2" data-name="Layer 2"><g id="Layer_1-2" data-name="Layer 1"><polygon class="cls-1" points="189.57 29.03 189.57 154.35 225.92 154.35 225.92 108.56 253.64 108.56 253.64 74.56 225 74.56 225 62.85 267.88 62.85 262.09 29.03 189.57 29.03"/><path class="cls-1" d="M142.71,0,0,25.68,25.69,168.39l.2,0c.32-12.11,6.32-61.19,81.8-84L105,106.63c-2.44.61-53.34,14-49.87,56.46l59-10.62c-1.59-5-7.67-18.39-27.14-16.89l19.77-12.06s33.42,4,46.79,21.86l14.81-2.67ZM127.25,63.58c-3.76.67-77,14.61-101.32,86.91,0,0,.13-74.28,103.3-103.47ZM136,34.73C125.85,37.18,41.63,59.81,25.93,138.82c0,0-.62-86.44,111.59-116.9Z"/><path class="cls-1" d="M351,89.62v31.75C326.56,128,304.59,111.86,304.59,93c0-19.38,15-32.46,32.76-32.46,10.59,0,23.29,3.22,31.16,8.81l14.68-31.09c-11.32-7-26.07-11.67-48.43-10.93-39.42,1.32-66.7,27.09-66.7,65.67,0,33.66,20.76,56.06,51.68,61.49a164.77,164.77,0,0,0,20.45,1.26,161,161,0,0,0,42.29-5.53c1.16-.39,2.33-.82,3.5-1.27V89.62Z"/></g></g></svg>